<svg id="visual" viewBox="0 0 900 600" width="900" height="600" xmlns="http://www.w3.org/2000/svg" xmlns:xlink="http://www.w3.org/1999/xlink" version="1.1"><g stroke-width="1" stroke-linejoin="bevel"><path d="M467 285L416 400L493 363Z" fill="#00101c" stroke="#00101c"></path><path d="M467 285L364 329L416 400Z" fill="#001729" stroke="#001729"></path><path d="M362 236L322 335L364 329Z" fill="#1b3599" stroke="#1b3599"></path><path d="M364 329L322 335L416 400Z" fill="#00101c" stroke="#00101c"></path><path d="M467 285L362 236L364 329Z" fill="#1b3599" stroke="#1b3599"></path><path d="M493 363L598 283L467 285Z" fill="#002d70" stroke="#002d70"></path><path d="M467 285L524 160L362 236Z" fill="#1b3599" stroke="#1b3599"></path><path d="M200 291L276 418L322 335Z" fill="#002a62" stroke="#002a62"></path><path d="M322 335L276 418L416 400Z" fill="#001c37" stroke="#001c37"></path><path d="M276 418L439 537L416 400Z" fill="#2936a6" stroke="#2936a6"></path><path d="M416 400L510 536L493 363Z" fill="#1b3599" stroke="#1b3599"></path><path d="M493 363L631 407L598 283Z" fill="#00101c" stroke="#00101c"></path><path d="M598 283L524 160L467 285Z" fill="#001c37" stroke="#001c37"></path><path d="M364 89L307 178L362 236Z" fill="#00101c" stroke="#00101c"></path><path d="M218 209L200 291L322 335Z" fill="#02307e" stroke="#02307e"></path><path d="M623 489L631 407L493 363Z" fill="#001c37" stroke="#001c37"></path><path d="M439 537L510 536L416 400Z" fill="#0d338b" stroke="#0d338b"></path><path d="M598 283L627 239L524 160Z" fill="#002d70" stroke="#002d70"></path><path d="M714 317L627 239L598 283Z" fill="#0d338b" stroke="#0d338b"></path><path d="M218 209L322 335L362 236Z" fill="#002654" stroke="#002654"></path><path d="M510 536L623 489L493 363Z" fill="#002654" stroke="#002654"></path><path d="M307 178L218 209L362 236Z" fill="#1b3599" stroke="#1b3599"></path><path d="M580 129L532 105L524 160Z" fill="#1b3599" stroke="#1b3599"></path><path d="M524 160L364 89L362 236Z" fill="#002d70" stroke="#002d70"></path><path d="M223 497L260 525L276 418Z" fill="#02307e" stroke="#02307e"></path><path d="M276 418L260 525L439 537Z" fill="#0d338b" stroke="#0d338b"></path><path d="M627 239L580 129L524 160Z" fill="#001729" stroke="#001729"></path><path d="M200 291L194 431L276 418Z" fill="#02307e" stroke="#02307e"></path><path d="M532 105L364 89L524 160Z" fill="#00101c" stroke="#00101c"></path><path d="M307 178L167 125L218 209Z" fill="#002146" stroke="#002146"></path><path d="M439 537L434 600L510 536Z" fill="#0d338b" stroke="#0d338b"></path><path d="M510 536L561 600L623 489Z" fill="#002146" stroke="#002146"></path><path d="M262 600L434 600L439 537Z" fill="#2936a6" stroke="#2936a6"></path><path d="M194 431L223 497L276 418Z" fill="#001729" stroke="#001729"></path><path d="M434 600L516 600L510 536Z" fill="#2936a6" stroke="#2936a6"></path><path d="M678 518L707 402L623 489Z" fill="#2936a6" stroke="#2936a6"></path><path d="M623 489L707 402L631 407Z" fill="#002654" stroke="#002654"></path><path d="M631 407L714 317L598 283Z" fill="#0d338b" stroke="#0d338b"></path><path d="M627 239L711 222L580 129Z" fill="#1b3599" stroke="#1b3599"></path><path d="M707 402L714 317L631 407Z" fill="#001c37" stroke="#001c37"></path><path d="M318 0L313 79L364 89Z" fill="#1b3599" stroke="#1b3599"></path><path d="M364 89L313 79L307 178Z" fill="#001c37" stroke="#001c37"></path><path d="M516 600L561 600L510 536Z" fill="#002146" stroke="#002146"></path><path d="M714 317L711 222L627 239Z" fill="#1b3599" stroke="#1b3599"></path><path d="M561 600L678 518L623 489Z" fill="#00101c" stroke="#00101c"></path><path d="M182 600L262 600L260 525Z" fill="#002146" stroke="#002146"></path><path d="M260 525L262 600L439 537Z" fill="#002146" stroke="#002146"></path><path d="M182 600L260 525L223 497Z" fill="#2936a6" stroke="#2936a6"></path><path d="M218 209L105 307L200 291Z" fill="#002146" stroke="#002146"></path><path d="M200 291L105 307L194 431Z" fill="#00101c" stroke="#00101c"></path><path d="M194 431L122 478L223 497Z" fill="#0d338b" stroke="#0d338b"></path><path d="M74 179L105 307L218 209Z" fill="#1b3599" stroke="#1b3599"></path><path d="M768 414L765 262L714 317Z" fill="#002146" stroke="#002146"></path><path d="M714 317L765 262L711 222Z" fill="#0d338b" stroke="#0d338b"></path><path d="M768 414L714 317L707 402Z" fill="#002146" stroke="#002146"></path><path d="M463 0L364 89L532 105Z" fill="#002654" stroke="#002654"></path><path d="M463 0L417 0L364 89Z" fill="#1b3599" stroke="#1b3599"></path><path d="M463 0L532 105L630 0Z" fill="#1b3599" stroke="#1b3599"></path><path d="M532 105L580 129L630 0Z" fill="#002146" stroke="#002146"></path><path d="M737 138L580 129L711 222Z" fill="#1b3599" stroke="#1b3599"></path><path d="M82 423L122 478L194 431Z" fill="#002654" stroke="#002654"></path><path d="M678 518L768 414L707 402Z" fill="#002654" stroke="#002654"></path><path d="M238 0L167 125L313 79Z" fill="#002146" stroke="#002146"></path><path d="M313 79L167 125L307 178Z" fill="#02307e" stroke="#02307e"></path><path d="M417 0L318 0L364 89Z" fill="#1b3599" stroke="#1b3599"></path><path d="M561 600L682 600L678 518Z" fill="#002146" stroke="#002146"></path><path d="M678 518L800 481L768 414Z" fill="#002a62" stroke="#002a62"></path><path d="M105 307L82 423L194 431Z" fill="#001729" stroke="#001729"></path><path d="M122 478L182 600L223 497Z" fill="#002a62" stroke="#002a62"></path><path d="M90 600L182 600L122 478Z" fill="#002146" stroke="#002146"></path><path d="M819 175L737 138L711 222Z" fill="#002654" stroke="#002654"></path><path d="M737 138L630 0L580 129Z" fill="#001729" stroke="#001729"></path><path d="M318 0L238 0L313 79Z" fill="#00101c" stroke="#00101c"></path><path d="M774 600L800 481L678 518Z" fill="#002a62" stroke="#002a62"></path><path d="M900 179L819 175L765 262Z" fill="#0d338b" stroke="#0d338b"></path><path d="M167 125L74 179L218 209Z" fill="#002654" stroke="#002654"></path><path d="M105 307L0 336L82 423Z" fill="#0d338b" stroke="#0d338b"></path><path d="M61 88L74 179L167 125Z" fill="#1b3599" stroke="#1b3599"></path><path d="M765 262L819 175L711 222Z" fill="#002d70" stroke="#002d70"></path><path d="M737 138L693 0L630 0Z" fill="#001c37" stroke="#001c37"></path><path d="M900 339L765 262L768 414Z" fill="#00101c" stroke="#00101c"></path><path d="M767 0L693 0L737 138Z" fill="#0d338b" stroke="#0d338b"></path><path d="M682 600L774 600L678 518Z" fill="#02307e" stroke="#02307e"></path><path d="M0 523L90 600L122 478Z" fill="#002d70" stroke="#002d70"></path><path d="M74 179L0 336L105 307Z" fill="#001729" stroke="#001729"></path><path d="M82 423L0 523L122 478Z" fill="#0d338b" stroke="#0d338b"></path><path d="M0 336L0 413L82 423Z" fill="#001c37" stroke="#001c37"></path><path d="M819 175L804 85L737 138Z" fill="#002d70" stroke="#002d70"></path><path d="M74 179L0 176L0 336Z" fill="#1b3599" stroke="#1b3599"></path><path d="M137 0L61 88L167 125Z" fill="#1b3599" stroke="#1b3599"></path><path d="M238 0L137 0L167 125Z" fill="#002654" stroke="#002654"></path><path d="M61 88L0 176L74 179Z" fill="#001c37" stroke="#001c37"></path><path d="M900 379L768 414L800 481Z" fill="#2936a6" stroke="#2936a6"></path><path d="M900 379L900 339L768 414Z" fill="#002d70" stroke="#002d70"></path><path d="M819 175L900 66L804 85Z" fill="#002654" stroke="#002654"></path><path d="M900 511L900 379L800 481Z" fill="#2936a6" stroke="#2936a6"></path><path d="M0 413L0 523L82 423Z" fill="#2936a6" stroke="#2936a6"></path><path d="M804 85L767 0L737 138Z" fill="#02307e" stroke="#02307e"></path><path d="M900 339L900 179L765 262Z" fill="#001729" stroke="#001729"></path><path d="M804 85L900 0L767 0Z" fill="#002a62" stroke="#002a62"></path><path d="M774 600L900 511L800 481Z" fill="#02307e" stroke="#02307e"></path><path d="M0 0L0 94L61 88Z" fill="#002d70" stroke="#002d70"></path><path d="M61 88L0 94L0 176Z" fill="#002146" stroke="#002146"></path><path d="M0 523L0 600L90 600Z" fill="#002654" stroke="#002654"></path><path d="M774 600L900 600L900 511Z" fill="#001729" stroke="#001729"></path><path d="M900 179L900 66L819 175Z" fill="#001729" stroke="#001729"></path><path d="M137 0L0 0L61 88Z" fill="#00101c" stroke="#00101c"></path><path d="M900 66L900 0L804 85Z" fill="#002d70" stroke="#002d70"></path></g></svg>