<svg id="visual" viewBox="0 0 900 600" width="900" height="600" xmlns="http://www.w3.org/2000/svg" xmlns:xlink="http://www.w3.org/1999/xlink" version="1.1"><rect x="0" y="0" width="900" height="600" fill="#001220"></rect><defs><linearGradient id="grad1_0" x1="33.3%" y1="0%" x2="100%" y2="100%"><stop offset="20%" stop-color="#fbae3c" stop-opacity="1"></stop><stop offset="80%" stop-color="#fbae3c" stop-opacity="1"></stop></linearGradient></defs><defs><linearGradient id="grad1_1" x1="33.3%" y1="0%" x2="100%" y2="100%"><stop offset="20%" stop-color="#fbae3c" stop-opacity="1"></stop><stop offset="80%" stop-color="#001220" stop-opacity="1"></stop></linearGradient></defs><defs><linearGradient id="grad2_0" x1="0%" y1="0%" x2="66.7%" y2="100%"><stop offset="20%" stop-color="#fbae3c" stop-opacity="1"></stop><stop offset="80%" stop-color="#fbae3c" stop-opacity="1"></stop></linearGradient></defs><defs><linearGradient id="grad2_1" x1="0%" y1="0%" x2="66.7%" y2="100%"><stop offset="20%" stop-color="#001220" stop-opacity="1"></stop><stop offset="80%" stop-color="#fbae3c" stop-opacity="1"></stop></linearGradient></defs><g transform="translate(900, 0)"><path d="M0 432.7C-28.2 396.2 -56.4 359.7 -94.5 352.6C-132.5 345.4 -180.5 367.6 -202 349.9C-223.5 332.2 -218.7 274.6 -251 251C-283.4 227.5 -353 237.9 -374.7 216.3C-396.4 194.7 -370.2 141 -371.9 99.6C-373.6 58.2 -403.1 29.1 -432.7 0L0 0Z" fill="#96446e"></path><path d="M0 216.3C-14.1 198.1 -28.2 179.9 -47.2 176.3C-66.3 172.7 -90.2 183.8 -101 174.9C-111.8 166.1 -109.3 137.3 -125.5 125.5C-141.7 113.7 -176.5 119 -187.3 108.2C-198.2 97.4 -185.1 70.5 -185.9 49.8C-186.8 29.1 -201.6 14.6 -216.3 0L0 0Z" fill="#fbae3c"></path></g><g transform="translate(0, 600)"><path d="M0 -432.7C30.2 -406.1 60.4 -379.6 100.9 -376.7C141.5 -373.8 192.4 -394.6 216.3 -374.7C240.2 -354.8 237.1 -294.4 264.5 -264.5C291.8 -234.5 349.6 -235.2 363.7 -210C377.9 -184.8 348.3 -133.8 352.6 -94.5C356.8 -55.2 394.7 -27.6 432.7 0L0 0Z" fill="#96446e"></path><path d="M0 -216.3C15.1 -203.1 30.2 -189.8 50.5 -188.4C70.7 -186.9 96.2 -197.3 108.2 -187.3C120.1 -177.4 118.6 -147.2 132.2 -132.2C145.9 -117.3 174.8 -117.6 181.9 -105C188.9 -92.4 174.2 -66.9 176.3 -47.2C178.4 -27.6 197.4 -13.8 216.3 0L0 0Z" fill="#fbae3c"></path></g></svg>